# xmcd
#
# Track frame offsets: 
#        150
#        11560
#        21604
#        30864
#        42142
#        53086
#        66360
#        78246
#        87695
#        100648
#        113908
#        125670
#        138166
#        149517
#        161203
#        173681
#        184196
#        195854
#        208225
#        218711
#
# Disc length: 3048 seconds
#
# Revision: 1
# Processed by: cddbd v1.5.2PL0 Copyright (c) Steve Scherf et al.
# Submitted via: ExactAudioCopy v1.0b3
#
DISCID=190be614
DTITLE=Sonny James - 20 All-Time Greatest Hits
DYEAR=2014
DGENRE=Country
TTITLE0=Young Love
TTITLE1=You're The Only World I Know
TTITLE2=Behind The Tear
TTITLE3=Take Good Care Of Her
TTITLE4=I'll Never Find Another You
TTITLE5=It's The Little Things
TTITLE6=Only The Lonely
TTITLE7=Heaven Says Hello
TTITLE8=Since I Met You Baby
TTITLE9=Endlessly
TTITLE10=Born To Be With You
TTITLE11=Running Bear
TTITLE12=A World Of Our Own
TTITLE13=It's Just A Matter Of Time
TTITLE14=Don't Keep Me Hanging On
TTITLE15=Empty Arms
TTITLE16=Bright Lights Big City
TTITLE17=That's Why I Love You
TTITLE18=I'll Keep Holding On (Just To Your Love)
TTITLE19=True Love's A Blessing
EXTD=King Records
EXTT0=
EXTT1=
EXTT2=
EXTT3=
EXTT4=
EXTT5=
EXTT6=
EXTT7=
EXTT8=
EXTT9=
EXTT10=
EXTT11=
EXTT12=
EXTT13=
EXTT14=
EXTT15=
EXTT16=
EXTT17=
EXTT18=
EXTT19=
PLAYORDER=
